<?xml version="1.0" encoding="utf-8"?>
<!-- Generator: Adobe Illustrator 18.0.0, SVG Export Plug-In . SVG Version: 6.00 Build 0)  -->
<!DOCTYPE svg PUBLIC "-//W3C//DTD SVG 1.1//EN" "http://www.w3.org/Graphics/SVG/1.1/DTD/svg11.dtd">
<svg version="1.1" id="Layer_1" xmlns="http://www.w3.org/2000/svg" xmlns:xlink="http://www.w3.org/1999/xlink" x="0px" y="0px"
	 viewBox="0 0 27.9 27" enable-background="new 0 0 27.9 27" xml:space="preserve">
<g>
	<path fill="#595358" d="M13.7,27C6.2,27,0.1,20.9,0.1,13.4S6.2-0.2,13.7-0.2c7.5,0,13.6,6.1,13.6,13.6S21.2,27,13.7,27z M13.7,3.6
		c-5.4,0-9.7,4.4-9.7,9.7s4.4,9.7,9.7,9.7c5.4,0,9.7-4.4,9.7-9.7S19,3.6,13.7,3.6z"/>
	<path fill="#595358" d="M19.2,6.8c-0.7,0.8-1.3,1.7-2,2.5c-0.6,0.8-1.3,1.7-1.9,2.5c0.3,0.7,0.7,1.4,1,2.1c0.3,0.7,0.7,1.5,1.1,2.4
		l-0.3,0.2l0,0.2c-0.1,0.1-0.1,0.1-0.2,0.2c-0.1,0-0.1,0.1-0.2,0.1l0.1,0.3c-0.1,0.1-0.2,0.2-0.3,0.3c-0.1,0.1-0.2,0.1-0.4,0.2
		c-0.1,0-0.4-0.3-0.9-1c-0.4-0.6-1-1.5-1.8-2.8c-0.7,0.9-1.4,1.9-2,2.9s-1.3,2-1.9,3.1c-0.2,0.1-0.3,0.1-0.5,0.2
		c-0.2,0-0.3,0.1-0.5,0.1H8.6c-0.2-0.2-0.3-0.4-0.4-0.6C8,19.6,8,19.5,8,19.4c0-0.1,0-0.1,0-0.2c0-0.1,0-0.2,0.1-0.3l-0.2-0.3
		c0.2-0.6,0.7-1.4,1.5-2.5c0.7-1.1,1.8-2.4,3.1-4c-0.3-0.7-0.5-1.4-0.8-2.1c-0.3-0.7-0.5-1.6-0.9-2.5C10.9,7.2,11,7,11.1,6.9
		c0.1-0.1,0.2-0.2,0.3-0.2c0.1,0,0.1,0,0.2,0c0.1,0,0.1,0.1,0.2,0.1c0,0,0.1-0.1,0.1-0.1c0.1,0,0.1,0,0.2,0H12
		c0-0.1,0.1-0.1,0.1-0.2c0.1,0,0.1-0.1,0.2-0.1h0c0.2,0,0.5,0.6,1.1,1.7c0.3,0.7,0.6,1.2,0.8,1.6c0.4-0.4,0.9-1,1.5-1.7
		c1.1-1.4,1.8-2,1.9-2c0.1,0,0.2,0,0.3,0.1c0.1,0.1,0.2,0.2,0.4,0.3L18.7,6c0.1,0.1,0.2,0.2,0.3,0.4C19.1,6.5,19.1,6.6,19.2,6.8z"/>
</g>
</svg>
