<?xml version="1.0" encoding="utf-8"?>
<!-- Generator: Adobe Illustrator 18.0.0, SVG Export Plug-In . SVG Version: 6.00 Build 0)  -->
<!DOCTYPE svg PUBLIC "-//W3C//DTD SVG 1.1//EN" "http://www.w3.org/Graphics/SVG/1.1/DTD/svg11.dtd">
<svg version="1.1" id="Layer_1" xmlns="http://www.w3.org/2000/svg" xmlns:xlink="http://www.w3.org/1999/xlink" x="0px" y="0px"
	 viewBox="0 0 259 61" enable-background="new 0 0 259 61" xml:space="preserve">
<g>
	<path fill="#FFFFFF" d="M72.6,56.3h-3V26.9h3l-0.1,3.5c1.5-2.5,4.9-4.4,9.7-4.4c11,0,10.3,9.7,10.3,12.2v18.1h-3V38.2
		c0-1.7,0.5-9.3-7.4-9.3c-8.9,0-9.6,7.9-9.6,8V56.3z"/>
	<path fill="#FFFFFF" d="M62.4,26.9v5.3c-2.7-3.9-7.1-6.4-12.1-6.4c-8.3,0-15,7.1-15,15.8c0,8.7,6.7,15.8,15,15.8
		c5,0,9.3-2.5,12.1-6.4v5.3h3V26.9H62.4z M50.3,54.4c-6.7,0-12.1-5.7-12.1-12.8s5.4-12.8,12.1-12.8c6.7,0,12.1,5.7,12.1,12.8
		S56.9,54.4,50.3,54.4z"/>
	<path fill="#FFFFFF" d="M144.3,26.9v5.3c-2.7-3.9-7.1-6.4-12.1-6.4c-8.3,0-15,7.1-15,15.8c0,8.7,6.7,15.8,15,15.8
		c5,0,9.3-2.5,12.1-6.4v5.3h3V26.9H144.3z M132.2,54.4c-6.7,0-12.1-5.7-12.1-12.8s5.4-12.8,12.1-12.8c6.7,0,12.1,5.7,12.1,12.8
		S138.9,54.4,132.2,54.4z"/>
	<path fill="#FFFFFF" d="M112.5,30.7c-1.1-2.4-4.5-4.9-7.7-4.9c-3.3,0-7.9,2.2-7.9,8c0,10.2,14.8,5.8,14.8,15.1
		c0,5.6-5.7,5.6-6.7,5.6c-3.6,0-7-2.8-7.9-5.6c-1,0.8-1.6,1.2-2.6,2.2c0.8,1.8,3.2,6.4,10.5,6.4c6.6,0,9.7-3.5,9.7-8.9
		c0-11.8-14.6-7.9-14.6-15c0-3.5,2.8-4.9,4.4-4.9c2.7,0,4.4,1.4,5.8,3.8C111.3,32,111.7,31.7,112.5,30.7"/>
	<path fill="#FFFFFF" d="M177.3,48.8c-2.3,3.5-6.3,5.7-10.7,5.7c-7.2,0-13-5.8-13-13c0-7.2,5.8-13,13-13c4.5,0,8.4,2.3,10.7,5.7
		l0-4.3c-2.8-2.6-6.6-4.2-10.8-4.2c-8.7,0-15.8,7.1-15.8,15.8c0,8.7,7.1,15.8,15.8,15.8c4.2,0,7.9-1.6,10.8-4.2L177.3,48.8z"/>
	<path fill="#FFFFFF" d="M230.1,59.1L230.1,59.1l-0.2,0c-10.8-0.1-23.7-5.2-24-29c-0.1-10.1,2.4-17.7,7.3-22.7
		c5.5-5.5,12.6-6.4,16.4-6.4l0.3,0c15.5,0.2,24,10.5,23.9,29.1C253.8,55.3,239,59.1,230.1,59.1L230.1,59.1z M230.1,55.4
		c13.3,0,20-8.5,20.1-25.4c0.1-16.7-6.8-25.2-20.3-25.4c0,0,0,0,0,0l0,0c-3.4,0-9.4,0.7-14,5.3c-4.3,4.3-6.4,11-6.3,20.1
		c0.2,17,6.8,25.3,20.3,25.4L230.1,55.4z"/>
	<path fill="#FFFFFF" d="M30,3.9v28.6c-2.7-4.1-7.2-6.7-12.3-6.7c-8.3,0-15,7.1-15,15.8c0,8.7,6.7,15.8,15,15.8
		c5.1,0,9.6-2.7,12.3-6.7v5.8h3V3.9H30z M17.7,54.4c-6.7,0-12.1-5.7-12.1-12.8s5.4-12.8,12.1-12.8c6.7,0,12.1,5.7,12.1,12.8
		S24.4,54.4,17.7,54.4z"/>
</g>
</svg>
