<?xml version="1.0" encoding="utf-8"?>
<!-- Generator: Adobe Illustrator 18.0.0, SVG Export Plug-In . SVG Version: 6.00 Build 0)  -->
<!DOCTYPE svg PUBLIC "-//W3C//DTD SVG 1.1//EN" "http://www.w3.org/Graphics/SVG/1.1/DTD/svg11.dtd">
<svg version="1.1" id="Layer_1" xmlns="http://www.w3.org/2000/svg" xmlns:xlink="http://www.w3.org/1999/xlink" x="0px" y="0px"
	 viewBox="0 0 316.4 67.9" enable-background="new 0 0 316.4 67.9" xml:space="preserve">
<g>
	<path d="M87.9,66.4h-3.7v-37h3.7l-0.1,4.4c1.9-3.2,6.1-5.6,12.2-5.6c13.8,0,13,12.2,13,15.4v22.8h-3.7V43.6
		c0-2.1,0.7-11.6-9.2-11.6C88.7,32,87.9,41.8,87.9,42V66.4z"/>
	<path d="M34.1,0.3v35.8c-3.4-4.9-9-8.1-15.2-8.1C8.5,28,0,36.9,0,47.9c0,11,8.5,19.8,18.9,19.8c6.2,0,11.7-3.2,15.2-8.1v6.7h3.7
		v-66H34.1z M18.9,64c-8.4,0-15.2-7.2-15.2-16.1c0-8.9,6.8-16.1,15.2-16.1c8.4,0,15.2,7.2,15.2,16.1C34.1,56.8,27.3,64,18.9,64z"/>
	<path d="M75,29.4v6.7c-3.4-4.9-9-8.1-15.2-8.1c-10.4,0-18.9,8.9-18.9,19.8c0,11,8.5,19.8,18.9,19.8c6.2,0,11.7-3.2,15.2-8.1v6.7
		h3.7v-37H75z M59.9,64c-8.4,0-15.2-7.2-15.2-16.1c0-8.9,6.8-16.1,15.2-16.1C68.2,31.8,75,39,75,47.9C75,56.8,68.2,64,59.9,64z"/>
	<path d="M178,29.4v6.7c-3.4-4.9-9-8.1-15.2-8.1c-10.4,0-18.9,8.9-18.9,19.8c0,11,8.5,19.8,18.9,19.8c6.2,0,11.7-3.2,15.2-8.1v6.7
		h3.7v-37H178z M162.9,64c-8.4,0-15.2-7.2-15.2-16.1c0-8.9,6.8-16.1,15.2-16.1c8.4,0,15.2,7.2,15.2,16.1C178,56.8,171.2,64,162.9,64
		z"/>
	<path d="M138.1,34.2c-1.3-3-5.6-6.1-9.7-6.1c-4.1,0-9.9,2.8-9.9,10.1c0,12.9,18.7,7.3,18.7,19c0,7.1-7.2,7-8.4,7
		c-4.5,0-8.8-3.5-9.9-7c-1.2,1-2,1.5-3.3,2.8c1,2.3,4,8,13.2,8c8.4,0,12.2-4.4,12.2-11.1c0-14.9-18.4-9.9-18.4-18.8
		c0-4.5,3.5-6.1,5.5-6.1c3.4,0,5.5,1.8,7.3,4.8C136.5,35.8,137,35.5,138.1,34.2z"/>
	<path d="M219.6,57c-2.9,4.3-7.9,7.2-13.5,7.2c-9,0-16.3-7.3-16.3-16.3c0-9,7.3-16.3,16.3-16.3c5.6,0,10.6,2.8,13.5,7.1l0-5.4
		c-3.5-3.3-8.3-5.3-13.5-5.3c-11,0-19.9,8.9-19.9,19.9c0,11,8.9,19.9,19.9,19.9c5.2,0,10-2,13.5-5.3V57z"/>
	<path fill="#FF5E15" d="M284.3,0c-7.4-0.1-27.5,2.5-27.2,33.4c0.3,27.9,15,33.3,27.2,33.4c13.1,0.1,27.1-6.4,27.2-33.4
		C311.5,24.6,310.3,0.3,284.3,0z"/>
</g>
</svg>
