<?xml version="1.0" encoding="utf-8"?>
<!-- Generator: Adobe Illustrator 18.0.0, SVG Export Plug-In . SVG Version: 6.00 Build 0)  -->
<!DOCTYPE svg PUBLIC "-//W3C//DTD SVG 1.1//EN" "http://www.w3.org/Graphics/SVG/1.1/DTD/svg11.dtd">
<svg version="1.1" id="Layer_1" xmlns="http://www.w3.org/2000/svg" xmlns:xlink="http://www.w3.org/1999/xlink" x="0px" y="0px"
	 viewBox="0 0 163.1 36.8" enable-background="new 0 0 163.1 36.8" xml:space="preserve">
<g>
	<path fill="#FFFFFF" d="M45.4,36.1h-1.9V17h1.9l0,2.3c1-1.6,3.2-2.9,6.3-2.9c7.1,0,6.7,6.3,6.7,7.9v11.8h-1.9V24.3
		c0-1.1,0.3-6-4.8-6c-5.8,0-6.2,5.1-6.2,5.2V36.1z"/>
	<path fill="#FFFFFF" d="M38.7,17v3.5c-1.8-2.5-4.6-4.2-7.8-4.2c-5.4,0-9.8,4.6-9.8,10.2c0,5.7,4.4,10.2,9.8,10.2
		c3.2,0,6.1-1.6,7.8-4.2v3.5h1.9V17H38.7z M30.9,34.8c-4.3,0-7.8-3.7-7.8-8.3s3.5-8.3,7.8-8.3c4.3,0,7.8,3.7,7.8,8.3
		S35.2,34.8,30.9,34.8z"/>
	<path fill="#FFFFFF" d="M91.9,17v3.5c-1.8-2.5-4.6-4.2-7.8-4.2c-5.4,0-9.8,4.6-9.8,10.2c0,5.7,4.4,10.2,9.8,10.2
		c3.2,0,6.1-1.6,7.8-4.2v3.5h1.9V17H91.9z M84.1,34.8c-4.3,0-7.8-3.7-7.8-8.3s3.5-8.3,7.8-8.3c4.3,0,7.8,3.7,7.8,8.3
		S88.4,34.8,84.1,34.8z"/>
	<path fill="#FFFFFF" d="M71.3,19.5c-0.7-1.5-2.9-3.2-5-3.2c-2.1,0-5.1,1.4-5.1,5.2c0,6.6,9.6,3.8,9.6,9.8c0,3.7-3.7,3.6-4.3,3.6
		c-2.3,0-4.6-1.8-5.1-3.6c-0.6,0.5-1,0.8-1.7,1.4c0.5,1.2,2,4.1,6.8,4.1c4.3,0,6.3-2.3,6.3-5.8c0-7.7-9.5-5.1-9.5-9.7
		c0-2.3,1.8-3.2,2.9-3.2c1.7,0,2.8,0.9,3.7,2.5C70.5,20.3,70.7,20.1,71.3,19.5"/>
	<path fill="#FFFFFF" d="M113.4,31.2c-1.5,2.2-4.1,3.7-7,3.7c-4.6,0-8.4-3.8-8.4-8.4c0-4.6,3.8-8.4,8.4-8.4c2.9,0,5.4,1.5,7,3.7
		l0-2.8c-1.8-1.7-4.3-2.7-7-2.7c-5.7,0-10.3,4.6-10.3,10.3c0,5.7,4.6,10.3,10.3,10.3c2.7,0,5.1-1,7-2.7L113.4,31.2z"/>
	<path fill="#FFFFFF" d="M147.6,37.9L147.6,37.9l-0.2,0c-7-0.1-15.4-3.4-15.6-18.9c-0.1-6.5,1.5-11.5,4.8-14.7
		c3.6-3.6,8.2-4.1,10.6-4.1l0.2,0c10.1,0.1,15.6,6.8,15.5,18.9C163,35.5,153.4,37.9,147.6,37.9L147.6,37.9z M147.6,35.5
		c8.6,0,13-5.5,13-16.5c0-10.8-4.4-16.4-13.2-16.5c0,0,0,0,0,0l0,0c-2.2,0-6.1,0.4-9.1,3.4c-2.8,2.8-4.1,7.2-4.1,13
		c0.1,11,4.4,16.4,13.2,16.5L147.6,35.5z"/>
	<path fill="#FFFFFF" d="M17.7,2.1v18.5c-1.8-2.6-4.7-4.4-8-4.4C4.4,16.3,0,20.9,0,26.5c0,5.7,4.4,10.2,9.8,10.2
		c3.3,0,6.2-1.7,8-4.4v3.8h1.9V2.1H17.7z M9.8,34.8c-4.3,0-7.8-3.7-7.8-8.3s3.5-8.3,7.8-8.3c4.3,0,7.8,3.7,7.8,8.3
		S14.1,34.8,9.8,34.8z"/>
</g>
</svg>
