<?xml version="1.0" encoding="utf-8"?>
<!-- Generator: Adobe Illustrator 18.0.0, SVG Export Plug-In . SVG Version: 6.00 Build 0)  -->
<!DOCTYPE svg PUBLIC "-//W3C//DTD SVG 1.1//EN" "http://www.w3.org/Graphics/SVG/1.1/DTD/svg11.dtd">
<svg version="1.1" id="Layer_1" xmlns="http://www.w3.org/2000/svg" xmlns:xlink="http://www.w3.org/1999/xlink" x="0px" y="0px"
	 viewBox="0 0 28.3 29.9" enable-background="new 0 0 28.3 29.9" xml:space="preserve">
<g>
	<path fill="#FFFFFF" d="M22.3,10.8c0.9,1.5,1.4,3.2,1.4,5.1c0,5.4-4.4,9.7-9.7,9.7c-5.4,0-9.7-4.4-9.7-9.7c0-5.4,4.4-9.7,9.7-9.7
		c1,0,2,0.2,3,0.5c1-1.4,1.7-2.5,2.3-3.3c-1.6-0.7-3.4-1.1-5.3-1.1C6.5,2.3,0.4,8.4,0.4,15.9S6.5,29.5,14,29.5
		c7.5,0,13.6-6.1,13.6-13.6c0-3.1-1.1-6-2.8-8.3C23.9,8.6,23.1,9.7,22.3,10.8z"/>
	<path fill="#FFFFFF" d="M27.8,1.3c-2.6,2.9-5.1,6-7.4,9.1S16,16.8,14,20.1c-0.1,0.2-0.3,0.6-0.5,1c-0.7,1.3-1.6,2-2.8,2
		c-0.5,0-0.9-0.1-1.3-0.2c-0.3-0.2-0.6-0.4-0.9-0.8c-0.2-0.3-0.5-0.7-0.7-1.3c-0.2-0.5-0.4-1.3-0.7-2.3c0-0.1,0-0.1-0.1-0.2
		c-0.3-1.1-0.5-1.8-0.5-2.1c0-0.6,0.3-1.1,1-1.6c0.7-0.5,1.3-0.7,2-0.7c0.2,0,0.4,0.1,0.5,0.2c0.1,0.1,0.3,0.4,0.5,0.8
		c0.1,0.3,0.2,0.6,0.4,1c0.3,1,0.6,1.5,0.9,1.5c0.2,0,1-1.1,2.4-3.3c1.3-2.1,2.5-3.9,3.5-5.3c1.4-2,2.4-3.5,3.1-4.4
		c0.7-0.9,1.3-1.6,1.9-2c0.5-0.4,1.1-0.7,1.9-1c0.8-0.2,1.8-0.4,3-0.5L27.8,1.3z"/>
</g>
</svg>
